<svg id="visual" viewBox="0 0 900 450" width="900" height="450" xmlns="http://www.w3.org/2000/svg" xmlns:xlink="http://www.w3.org/1999/xlink" version="1.1"><rect x="0" y="0" width="900" height="450" fill="#ffbcb6"></rect><path d="M0 210L50 221.2C100 232.3 200 254.7 300 260.7C400 266.7 500 256.3 600 241.7C700 227 800 208 850 198.5L900 189L900 451L850 451C800 451 700 451 600 451C500 451 400 451 300 451C200 451 100 451 50 451L0 451Z" fill="#fa7268"></path><path d="M0 225L50 242.7C100 260.3 200 295.7 300 299C400 302.3 500 273.7 600 272C700 270.3 800 295.7 850 308.3L900 321L900 451L850 451C800 451 700 451 600 451C500 451 400 451 300 451C200 451 100 451 50 451L0 451Z" fill="#ef5f67"></path><path d="M0 281L50 285.2C100 289.3 200 297.7 300 309.7C400 321.7 500 337.3 600 338.7C700 340 800 327 850 320.5L900 314L900 451L850 451C800 451 700 451 600 451C500 451 400 451 300 451C200 451 100 451 50 451L0 451Z" fill="#e34c67"></path><path d="M0 334L50 338.7C100 343.3 200 352.7 300 354C400 355.3 500 348.7 600 352.5C700 356.3 800 370.7 850 377.8L900 385L900 451L850 451C800 451 700 451 600 451C500 451 400 451 300 451C200 451 100 451 50 451L0 451Z" fill="#d53867"></path><path d="M0 443L50 433.8C100 424.7 200 406.3 300 390.8C400 375.3 500 362.7 600 364.3C700 366 800 382 850 390L900 398L900 451L850 451C800 451 700 451 600 451C500 451 400 451 300 451C200 451 100 451 50 451L0 451Z" fill="#c62368"></path></svg>