<svg id="visual" viewBox="0 0 900 450" width="900" height="450" xmlns="http://www.w3.org/2000/svg" xmlns:xlink="http://www.w3.org/1999/xlink" version="1.1"><rect x="0" y="0" width="900" height="450" fill="#baecf1"></rect><path d="M0 250L18.8 247.2C37.7 244.3 75.3 238.7 112.8 243C150.3 247.3 187.7 261.7 225.2 268.8C262.7 276 300.3 276 337.8 277.5C375.3 279 412.7 282 450.2 273.7C487.7 265.3 525.3 245.7 562.8 242.8C600.3 240 637.7 254 675.2 258.5C712.7 263 750.3 258 787.8 251.5C825.3 245 862.7 237 881.3 233L900 229L900 451L881.3 451C862.7 451 825.3 451 787.8 451C750.3 451 712.7 451 675.2 451C637.7 451 600.3 451 562.8 451C525.3 451 487.7 451 450.2 451C412.7 451 375.3 451 337.8 451C300.3 451 262.7 451 225.2 451C187.7 451 150.3 451 112.8 451C75.3 451 37.7 451 18.8 451L0 451Z" fill="#22beda"></path><path d="M0 265L18.8 265.7C37.7 266.3 75.3 267.7 112.8 266.3C150.3 265 187.7 261 225.2 260.2C262.7 259.3 300.3 261.7 337.8 270C375.3 278.3 412.7 292.7 450.2 300.3C487.7 308 525.3 309 562.8 309.7C600.3 310.3 637.7 310.7 675.2 302.8C712.7 295 750.3 279 787.8 271.7C825.3 264.3 862.7 265.7 881.3 266.3L900 267L900 451L881.3 451C862.7 451 825.3 451 787.8 451C750.3 451 712.7 451 675.2 451C637.7 451 600.3 451 562.8 451C525.3 451 487.7 451 450.2 451C412.7 451 375.3 451 337.8 451C300.3 451 262.7 451 225.2 451C187.7 451 150.3 451 112.8 451C75.3 451 37.7 451 18.8 451L0 451Z" fill="#00a9df"></path><path d="M0 325L18.8 321.3C37.7 317.7 75.3 310.3 112.8 313C150.3 315.7 187.7 328.3 225.2 335.3C262.7 342.3 300.3 343.7 337.8 343.5C375.3 343.3 412.7 341.7 450.2 335.3C487.7 329 525.3 318 562.8 315.3C600.3 312.7 637.7 318.3 675.2 318C712.7 317.7 750.3 311.3 787.8 311.8C825.3 312.3 862.7 319.7 881.3 323.3L900 327L900 451L881.3 451C862.7 451 825.3 451 787.8 451C750.3 451 712.7 451 675.2 451C637.7 451 600.3 451 562.8 451C525.3 451 487.7 451 450.2 451C412.7 451 375.3 451 337.8 451C300.3 451 262.7 451 225.2 451C187.7 451 150.3 451 112.8 451C75.3 451 37.7 451 18.8 451L0 451Z" fill="#0091dd"></path><path d="M0 342L18.8 348.7C37.7 355.3 75.3 368.7 112.8 368.7C150.3 368.7 187.7 355.3 225.2 351.2C262.7 347 300.3 352 337.8 360C375.3 368 412.7 379 450.2 376.5C487.7 374 525.3 358 562.8 352.3C600.3 346.7 637.7 351.3 675.2 355C712.7 358.7 750.3 361.3 787.8 361.8C825.3 362.3 862.7 360.7 881.3 359.8L900 359L900 451L881.3 451C862.7 451 825.3 451 787.8 451C750.3 451 712.7 451 675.2 451C637.7 451 600.3 451 562.8 451C525.3 451 487.7 451 450.2 451C412.7 451 375.3 451 337.8 451C300.3 451 262.7 451 225.2 451C187.7 451 150.3 451 112.8 451C75.3 451 37.7 451 18.8 451L0 451Z" fill="#0077d5"></path><path d="M0 398L18.8 398.7C37.7 399.3 75.3 400.7 112.8 404.8C150.3 409 187.7 416 225.2 412.7C262.7 409.3 300.3 395.7 337.8 389.2C375.3 382.7 412.7 383.3 450.2 383.8C487.7 384.3 525.3 384.7 562.8 384.3C600.3 384 637.7 383 675.2 386.3C712.7 389.7 750.3 397.3 787.8 398.7C825.3 400 862.7 395 881.3 392.5L900 390L900 451L881.3 451C862.7 451 825.3 451 787.8 451C750.3 451 712.7 451 675.2 451C637.7 451 600.3 451 562.8 451C525.3 451 487.7 451 450.2 451C412.7 451 375.3 451 337.8 451C300.3 451 262.7 451 225.2 451C187.7 451 150.3 451 112.8 451C75.3 451 37.7 451 18.8 451L0 451Z" fill="#245ac7"></path></svg>